<svg width="512" height="512" viewBox="0 0 512 512" fill="none" xmlns="http://www.w3.org/2000/svg">
  <defs>
    <linearGradient id="paint0_linear" x1="0" y1="0" x2="512" y2="512" gradientUnits="userSpaceOnUse">
      <stop stop-color="#00AEEF"/>
      <stop offset="1" stop-color="#007AFF"/>
    </linearGradient>
  </defs>
  <rect width="512" height="512" rx="114" fill="white"/>
  <path d="M120 340C160 300 220 300 260 340C300 380 360 380 400 340V240C360 280 300 280 260 240C220 200 160 200 120 240V340Z" fill="url(#paint0_linear)"/>
  <path opacity="0.4" d="M120 240C160 200 220 200 260 240C300 280 360 280 400 240V140C360 180 300 180 260 140C220 100 160 100 120 140V240Z" fill="url(#paint0_linear)"/>
</svg>
